<?xml version="1.0" encoding="UTF-8"?>
<!DOCTYPE svg PUBLIC "-//W3C//DTD SVG 1.1//EN" "http://www.w3.org/Graphics/SVG/1.1/DTD/svg11.dtd">
<svg xmlns="http://www.w3.org/2000/svg" version="1.1" width="512px" height="512px" style="shape-rendering:geometricPrecision; text-rendering:geometricPrecision; image-rendering:optimizeQuality; fill-rule:evenodd; clip-rule:evenodd" xmlns:xlink="http://www.w3.org/1999/xlink">
<g><path style="opacity:0.996" fill="#000000" d="M 511.5,50.5 C 511.5,173.5 511.5,296.5 511.5,419.5C 505.366,442.129 490.699,455.629 467.5,460C 326.167,460.667 184.833,460.667 43.5,460C 20.3007,455.629 5.63403,442.129 -0.5,419.5C -0.5,310.167 -0.5,200.833 -0.5,91.5C 5.31865,70.182 18.9853,56.682 40.5,51C 52.8468,50.1674 65.1802,50.3341 77.5,51.5C 94.1667,84.8333 110.833,118.167 127.5,151.5C 152.827,152.666 178.16,152.833 203.5,152C 186.5,118.333 169.5,84.6667 152.5,51C 170.176,50.167 187.843,50.3337 205.5,51.5C 222.167,84.8333 238.833,118.167 255.5,151.5C 280.827,152.666 306.16,152.833 331.5,152C 314.5,118.333 297.5,84.6667 280.5,51C 298.176,50.167 315.843,50.3337 333.5,51.5C 350.167,84.8333 366.833,118.167 383.5,151.5C 408.827,152.666 434.16,152.833 459.5,152C 442.5,118.333 425.5,84.6667 408.5,51C 442.832,50.5 477.165,50.3333 511.5,50.5 Z"/></g>
</svg>
